<svg width="212" height="243" viewBox="0 0 212 243" fill="none" xmlns="http://www.w3.org/2000/svg">
<path d="M36.8866 190.1C36.6446 190.026 36.3886 190.009 36.139 190.052C35.8895 190.094 35.6534 190.195 35.4498 190.345C35.2462 190.496 35.0807 190.692 34.9667 190.918C34.8527 191.144 34.7934 191.393 34.7934 191.646V223.691C33.0268 221.996 30.724 220.971 28.2823 220.792C25.8407 220.613 23.4131 221.292 21.4184 222.711C19.4236 224.131 17.9867 226.202 17.3555 228.567C16.7243 230.933 16.9383 233.444 17.9607 235.669C18.983 237.893 20.7496 239.691 22.9558 240.753C25.162 241.814 27.6694 242.072 30.0456 241.483C32.4218 240.894 34.5178 239.493 35.9722 237.524C37.4266 235.555 38.1481 233.139 38.0124 230.695C38.023 230.62 38.0284 230.544 38.0286 230.468V206.777L56.964 212.601C57.2057 212.675 57.4614 212.692 57.7107 212.649C57.96 212.607 58.1959 212.507 58.3995 212.357C58.603 212.206 58.7685 212.011 58.8827 211.785C58.9969 211.56 59.0567 211.31 59.0571 211.057V202.895C59.0575 201.165 58.5031 199.481 57.4753 198.089C56.4476 196.697 55.0007 195.672 53.3471 195.163L36.8866 190.1V190.1Z" fill="#26F7FD"/>
<path d="M105.229 169.065C104.987 168.997 104.731 168.982 104.482 169.021C104.232 169.06 103.996 169.151 103.793 169.288C103.589 169.424 103.424 169.603 103.31 169.808C103.196 170.014 103.136 170.241 103.136 170.471V199.598C101.37 198.057 99.0669 197.125 96.6252 196.963C94.1835 196.8 91.7559 197.417 89.7612 198.707C87.7664 199.998 86.3295 201.88 85.6983 204.03C85.0671 206.18 85.2811 208.463 86.3035 210.485C87.3259 212.507 89.0925 214.142 91.2986 215.106C93.5048 216.071 96.0122 216.306 98.3884 215.77C100.765 215.235 102.861 213.962 104.315 212.172C105.769 210.382 106.491 208.186 106.355 205.964C106.366 205.896 106.371 205.827 106.371 205.759V184.224L125.307 189.517C125.549 189.585 125.804 189.6 126.054 189.561C126.303 189.523 126.539 189.432 126.742 189.295C126.946 189.159 127.111 188.981 127.226 188.776C127.34 188.571 127.4 188.344 127.4 188.115V180.695C127.4 179.123 126.846 177.592 125.818 176.327C124.79 175.062 123.343 174.129 121.69 173.667L105.229 169.065V169.065Z" fill="#26F7FD"/>
<path d="M157.801 195.351C157.559 195.283 157.303 195.268 157.053 195.307C156.804 195.345 156.568 195.437 156.364 195.573C156.16 195.71 155.995 195.888 155.881 196.094C155.767 196.299 155.708 196.526 155.708 196.756V225.884C153.941 224.343 151.638 223.411 149.197 223.248C146.755 223.086 144.327 223.703 142.333 224.993C140.338 226.283 138.901 228.166 138.27 230.316C137.639 232.466 137.853 234.749 138.875 236.771C139.897 238.793 141.664 240.427 143.87 241.392C146.076 242.357 148.584 242.592 150.96 242.056C153.336 241.52 155.432 240.248 156.886 238.457C158.341 236.667 159.062 234.472 158.927 232.25C158.937 232.182 158.943 232.113 158.943 232.044V210.51L177.878 215.803C178.12 215.871 178.376 215.886 178.625 215.847C178.874 215.809 179.11 215.717 179.314 215.581C179.517 215.445 179.683 215.267 179.797 215.062C179.911 214.857 179.971 214.63 179.971 214.4V206.981C179.972 205.408 179.417 203.877 178.39 202.612C177.362 201.347 175.915 200.415 174.261 199.953L157.801 195.351V195.351Z" fill="#26F7FD"/>
<path d="M38.9936 68.7683C29.9298 71.049 22.0107 76.5611 16.7243 84.2688C11.4379 91.9764 9.14803 101.349 10.2849 110.626C11.4217 119.903 15.907 128.446 22.898 134.649C29.8891 140.852 38.9047 144.289 48.2511 144.314H153.668C160.434 144.309 167.122 142.872 173.293 140.096C179.464 137.32 184.976 133.269 189.468 128.209C193.96 123.149 197.33 117.195 199.355 110.739C201.38 104.283 202.015 97.471 201.218 90.7519C200.421 84.0328 198.21 77.5588 194.73 71.7558C191.251 65.9528 186.582 60.9526 181.03 57.0841C175.479 53.2157 169.171 50.5668 162.523 49.3118C155.874 48.0568 149.035 48.2242 142.455 49.8029L129.709 53.272" stroke="#26F7FD" stroke-width="19.1667" stroke-linecap="round" stroke-linejoin="round"/>
<path d="M142.455 49.8029C139.18 36.8325 131.095 25.5929 119.84 18.3624C108.585 11.132 95.0012 8.45165 81.8431 10.8649C68.685 13.2781 56.9368 20.6042 48.98 31.3582C41.0232 42.1122 37.4532 55.4893 38.9936 68.7779C38.9936 68.7779 40.4598 77.2304 43.4594 82.022" stroke="#26F7FD" stroke-width="19.1667" stroke-linecap="round" stroke-linejoin="round"/>
</svg>
