<svg width="19" height="25" viewBox="0 0 19 25" fill="none" xmlns="http://www.w3.org/2000/svg">
<path d="M9.50158 0C9.71155 0 9.91291 0.101305 10.0614 0.281628C10.2098 0.461951 10.2933 0.706523 10.2933 0.961538V1.92308H11.875C12.5049 1.92308 13.109 2.22699 13.5544 2.76796C13.9998 3.30893 14.25 4.04264 14.25 4.80769V9.61538H16.625C17.2549 9.61538 17.859 9.9193 18.3044 10.4603C18.7498 11.0012 19 11.735 19 12.5V22.1154C19 22.8804 18.7498 23.6141 18.3044 24.1551C17.859 24.6961 17.2549 25 16.625 25H2.375C1.74511 25 1.14102 24.6961 0.695621 24.1551C0.250223 23.6141 0 22.8804 0 22.1154V13.0635C0.000165756 12.5825 0.0993322 12.1093 0.288478 11.6868C0.477624 11.2642 0.750747 10.9059 1.083 10.6442L4.24967 8.15C4.41275 8.02308 4.579 7.92115 4.75 7.84808V4.80769C4.75 4.04264 5.00022 3.30893 5.44562 2.76796C5.89102 2.22699 6.49511 1.92308 7.125 1.92308H8.70992V0.961538C8.70992 0.706523 8.79332 0.461951 8.94179 0.281628C9.09026 0.101305 9.29162 0 9.50158 0ZM6.33333 7.85C7.22317 8.23461 7.91667 9.25385 7.91667 10.5712V23.0769H11.0833V12.5C11.0831 11.9032 11.2352 11.321 11.5188 10.8337C11.8024 10.3463 12.2034 9.97777 12.6667 9.77885V4.80769C12.6667 4.55268 12.5833 4.30811 12.4348 4.12778C12.2863 3.94746 12.085 3.84615 11.875 3.84615H7.125C6.91504 3.84615 6.71367 3.94746 6.56521 4.12778C6.41674 4.30811 6.33333 4.55268 6.33333 4.80769V7.85ZM13.4583 11.5385C13.2484 11.5385 13.047 11.6398 12.8985 11.8201C12.7501 12.0004 12.6667 12.245 12.6667 12.5V23.0769H16.625C16.835 23.0769 17.0363 22.9756 17.1848 22.7953C17.3333 22.615 17.4167 22.3704 17.4167 22.1154V12.5C17.4167 12.245 17.3333 12.0004 17.1848 11.8201C17.0363 11.6398 16.835 11.5385 16.625 11.5385H13.4583ZM5.111 9.76346L1.94433 12.2577C1.83343 12.345 1.7423 12.4647 1.67924 12.6058C1.61618 12.7468 1.58321 12.9049 1.58333 13.0654V22.1154C1.58333 22.3704 1.66674 22.615 1.81521 22.7953C1.96367 22.9756 2.16504 23.0769 2.375 23.0769H6.33333V10.5712C6.33346 10.3981 6.29513 10.2282 6.22238 10.0794C6.14964 9.93056 6.04517 9.80835 5.92 9.72564C5.79483 9.64293 5.65361 9.60279 5.51122 9.60945C5.36883 9.6161 5.23056 9.66931 5.111 9.76346Z" fill="#3E82FC"/>
</svg>
