<svg width="26" height="26" viewBox="0 0 26 26" fill="none" xmlns="http://www.w3.org/2000/svg">
<path d="M13 0C5.82032 0 0 5.82032 0 13C0 20.1797 5.82032 26 13 26C20.1797 26 26 20.1797 26 13C26 5.82032 20.1797 0 13 0ZM13 2.82471C18.6197 2.82471 23.1737 7.38175 23.1737 13C23.1737 18.6183 18.6197 23.1737 13 23.1737C7.38032 23.1737 2.82629 18.6183 2.82629 13C2.82631 7.38175 7.38032 2.82471 13 2.82471ZM9.43421 6.61585L6.61585 9.43421L10.1816 13L6.61585 16.5658L9.43421 19.3841L13 15.8184L16.5658 19.3841L19.3841 16.5658L15.8184 13L19.3841 9.43421L16.5658 6.61585L13 10.1816L9.43421 6.61585Z" fill="#3E82FC"/>
</svg>
