<svg width="20" height="21" viewBox="0 0 20 21" fill="none" xmlns="http://www.w3.org/2000/svg">
<path d="M17.9668 20.0014L11.1556 13.1917C9.66837 14.1728 7.86995 14.5671 6.10864 14.2983C4.34733 14.0295 2.74843 13.1166 1.62158 11.7365C0.494723 10.3564 -0.0799071 8.60721 0.00896082 6.82772C0.0978287 5.04823 0.843872 3.36502 2.10262 2.10404C3.36336 0.84482 5.04656 0.098287 6.82621 0.00903644C8.60586 -0.0802141 10.3553 0.494169 11.7357 1.62094C13.1161 2.7477 14.0292 4.34667 14.2982 6.10814C14.5672 7.8696 14.1729 9.66821 13.1917 11.1556L20 17.9682L17.9668 20.0014ZM7.18921 2.8756C6.0448 2.87485 4.94695 3.32874 4.13719 4.13743C3.32743 4.94612 2.87208 6.04336 2.87132 7.18778C2.87057 8.3322 3.32446 9.43004 4.13315 10.2398C4.94184 11.0496 6.03908 11.5049 7.1835 11.5057C7.75016 11.506 8.31134 11.3948 8.83501 11.1783C9.35867 10.9618 9.83457 10.6443 10.2355 10.2438C10.6365 9.84342 10.9546 9.36795 11.1718 8.84457C11.389 8.32119 11.501 7.76015 11.5014 7.19349C11.5018 6.62684 11.3905 6.06565 11.174 5.54199C10.9575 5.01832 10.64 4.54242 10.2396 4.14147C9.83914 3.74052 9.36367 3.42236 8.84029 3.20516C8.31691 2.98796 7.75587 2.87598 7.18921 2.8756Z" fill="#3E82FC"/>
</svg>
