<svg width="34" height="41" viewBox="0 0 34 41" fill="none" xmlns="http://www.w3.org/2000/svg">
<path d="M5.8155 10.7607C4.31011 11.1395 2.99485 12.055 2.11684 13.3352C1.23882 14.6153 0.858498 16.1721 1.04731 17.7129C1.23612 19.2537 1.98108 20.6725 3.14222 21.7028C4.30335 22.733 5.80075 23.3039 7.35307 23.308H24.8616C25.9854 23.3072 27.0962 23.0684 28.1211 22.6074C29.146 22.1464 30.0616 21.4735 30.8077 20.6331C31.5537 19.7927 32.1134 18.8038 32.4497 17.7316C32.7861 16.6593 32.8915 15.5279 32.7591 14.412C32.6267 13.296 32.2595 12.2207 31.6816 11.2569C31.1037 10.2931 30.3282 9.46263 29.4062 8.82013C28.4842 8.17763 27.4366 7.73768 26.3323 7.52924C25.228 7.3208 24.0921 7.34859 22.9993 7.61079L20.8824 8.18698" stroke="white" stroke-width="2" stroke-linecap="round" stroke-linejoin="round"/>
<path d="M22.9993 7.6108C22.4553 5.45657 21.1125 3.5898 19.2432 2.3889C17.3738 1.188 15.1177 0.742838 12.9323 1.14364C10.7469 1.54445 8.79569 2.76124 7.47415 4.54735C6.15262 6.33346 5.55967 8.55525 5.81552 10.7623C5.81552 10.7623 6.05905 12.1662 6.55724 12.962" stroke="white" stroke-width="2" stroke-linecap="round" stroke-linejoin="round"/>
<path d="M4.43849 31.9179C4.39666 31.9051 4.35238 31.9022 4.30924 31.9096C4.26609 31.9169 4.22527 31.9343 4.19007 31.9603C4.15486 31.9863 4.12625 32.0202 4.10654 32.0593C4.08683 32.0984 4.07657 32.1416 4.07657 32.1853V37.7259C3.77111 37.4329 3.37296 37.2556 2.95078 37.2247C2.5286 37.1938 2.10886 37.3111 1.76396 37.5566C1.41905 37.802 1.17061 38.1601 1.06147 38.5691C0.952324 38.9781 0.989331 39.4123 1.1661 39.797C1.34287 40.1816 1.64833 40.4925 2.02979 40.676C2.41124 40.8596 2.84479 40.9042 3.25565 40.8023C3.66651 40.7004 4.02893 40.4583 4.2804 40.1178C4.53187 39.7773 4.65663 39.3597 4.63315 38.937C4.63499 38.924 4.63592 38.9109 4.63595 38.8978V34.8015L7.90998 35.8084C7.95177 35.8213 7.996 35.8241 8.0391 35.8168C8.0822 35.8095 8.12299 35.7921 8.15818 35.7662C8.19338 35.7403 8.22199 35.7064 8.24174 35.6674C8.26149 35.6284 8.27182 35.5853 8.2719 35.5416V34.1303C8.27196 33.8311 8.1761 33.5399 7.99839 33.2992C7.82069 33.0586 7.57051 32.8813 7.2846 32.7934L4.43849 31.9179Z" fill="white"/>
<path d="M16.2553 28.2809C16.2135 28.2692 16.1692 28.2666 16.1261 28.2732C16.0829 28.2799 16.0421 28.2957 16.0069 28.3194C15.9717 28.343 15.9431 28.3738 15.9234 28.4094C15.9037 28.4449 15.8934 28.4841 15.8934 28.5239V33.5601C15.5879 33.2938 15.1898 33.1326 14.7676 33.1045C14.3454 33.0764 13.9257 33.1831 13.5808 33.4062C13.2359 33.6293 12.9874 33.9548 12.8783 34.3265C12.7692 34.6983 12.8062 35.093 12.9829 35.4426C13.1597 35.7923 13.4652 36.0749 13.8466 36.2417C14.2281 36.4085 14.6616 36.4491 15.0725 36.3565C15.4833 36.2638 15.8458 36.0438 16.0972 35.7342C16.3487 35.4247 16.4735 35.0451 16.45 34.661C16.4518 34.6492 16.4528 34.6373 16.4528 34.6254V30.9019L19.7268 31.8172C19.7686 31.8288 19.8128 31.8315 19.8559 31.8248C19.899 31.8181 19.9398 31.8024 19.975 31.7788C20.0102 31.7552 20.0388 31.7245 20.0586 31.689C20.0783 31.6535 20.0887 31.6144 20.0887 31.5746V30.2918C20.0888 30.0199 19.9929 29.7551 19.8152 29.5364C19.6375 29.3177 19.3873 29.1565 19.1014 29.0766L16.2553 28.2809Z" fill="white"/>
<path d="M25.3452 32.8258C25.3034 32.8141 25.2591 32.8115 25.216 32.8182C25.1728 32.8249 25.132 32.8407 25.0968 32.8643C25.0616 32.888 25.033 32.9188 25.0133 32.9543C24.9936 32.9898 24.9833 33.0291 24.9833 33.0689V38.1051C24.6779 37.8387 24.2797 37.6776 23.8575 37.6495C23.4353 37.6214 23.0156 37.728 22.6707 37.9511C22.3258 38.1742 22.0773 38.4997 21.9682 38.8715C21.8591 39.2432 21.8961 39.638 22.0728 39.9876C22.2496 40.3372 22.5551 40.6198 22.9365 40.7866C23.318 40.9534 23.7515 40.994 24.1624 40.9014C24.5732 40.8088 24.9357 40.5887 25.1871 40.2792C25.4386 39.9697 25.5634 39.5901 25.5399 39.2059C25.5417 39.1941 25.5427 39.1822 25.5427 39.1703V35.4469L28.8167 36.3621C28.8585 36.3738 28.9027 36.3764 28.9458 36.3698C28.9889 36.3631 29.0297 36.3473 29.0649 36.3238C29.1001 36.3002 29.1287 36.2694 29.1485 36.234C29.1682 36.1985 29.1786 36.1593 29.1786 36.1196V34.8368C29.1787 34.5648 29.0828 34.3001 28.9051 34.0814C28.7274 33.8626 28.4773 33.7015 28.1913 33.6215L25.3452 32.8258Z" fill="white"/>
</svg>
