<svg width="33" height="30" viewBox="0 0 33 30" fill="none" xmlns="http://www.w3.org/2000/svg">
<path d="M16.9853 9.07099C16.9336 9.0551 16.8789 9.05155 16.8257 9.06064C16.7724 9.06973 16.722 9.09119 16.6785 9.12331C16.635 9.15542 16.5997 9.19729 16.5754 9.24555C16.551 9.2938 16.5384 9.3471 16.5384 9.40114V16.2425C16.1612 15.8806 15.6696 15.6617 15.1483 15.6236C14.627 15.5854 14.1087 15.7303 13.6828 16.0334C13.257 16.3364 12.9502 16.7786 12.8154 17.2836C12.6807 17.7886 12.7264 18.3248 12.9446 18.7997C13.1629 19.2747 13.5401 19.6585 14.0111 19.8852C14.4821 20.1118 15.0174 20.1669 15.5247 20.0411C16.032 19.9152 16.4795 19.6163 16.79 19.1958C17.1006 18.7754 17.2546 18.2597 17.2256 17.7379C17.2279 17.7218 17.229 17.7057 17.2291 17.6895V12.6315L21.2717 13.8748C21.3233 13.8907 21.3779 13.8942 21.4312 13.8852C21.4844 13.8761 21.5347 13.8547 21.5782 13.8227C21.6216 13.7906 21.657 13.7489 21.6814 13.7007C21.7058 13.6525 21.7185 13.5993 21.7186 13.5453V11.8027C21.7187 11.4333 21.6003 11.0737 21.3809 10.7766C21.1615 10.4795 20.8526 10.2605 20.4995 10.1519L16.9853 9.07099Z" fill="white"/>
<path d="M32.2016 6.13361C31.6896 4.93333 30.9513 3.84565 30.0281 2.93146C29.1042 2.01454 28.0149 1.28588 26.8194 0.785095C25.5797 0.263752 24.2502 -0.00310077 22.9078 2.71829e-05C21.0246 2.71829e-05 19.1873 0.522116 17.5906 1.50828C17.2086 1.74419 16.8457 2.0033 16.5019 2.28562C16.1581 2.0033 15.7952 1.74419 15.4132 1.50828C13.8165 0.522116 11.9791 2.71829e-05 10.0959 2.71829e-05C8.73989 2.71829e-05 7.42585 0.263006 6.18439 0.785095C4.98495 1.28785 3.90392 2.01104 2.97569 2.93146C2.05126 3.84462 1.31281 4.93256 0.802175 6.13361C0.271212 7.38275 0 8.70925 0 10.0744C0 11.3622 0.259752 12.7042 0.775436 14.0694C1.20708 15.2102 1.8259 16.3936 2.61662 17.5886C3.86954 19.4797 5.59231 21.4521 7.73144 23.4515C11.2763 26.7658 14.7868 29.0553 14.9357 29.1481L15.8411 29.7359C16.2421 29.995 16.7578 29.995 17.1589 29.7359L18.0642 29.1481C18.2132 29.0514 21.7198 26.7658 25.2685 23.4515C27.4077 21.4521 29.1304 19.4797 30.3833 17.5886C31.1741 16.3936 31.7967 15.2102 32.2245 14.0694C32.7402 12.7042 33 11.3622 33 10.0744C33.0038 8.70925 32.7326 7.38275 32.2016 6.13361ZM16.5019 26.6768C16.5019 26.6768 2.90311 17.8555 2.90311 10.0744C2.90311 6.13361 6.12327 2.9392 10.0959 2.9392C12.8883 2.9392 15.3101 4.51706 16.5019 6.82199C17.6937 4.51706 20.1155 2.9392 22.9078 2.9392C26.8805 2.9392 30.1007 6.13361 30.1007 10.0744C30.1007 17.8555 16.5019 26.6768 16.5019 26.6768Z" fill="white"/>
</svg>
