<svg width="429" height="164" viewBox="0 0 429 164" fill="none" xmlns="http://www.w3.org/2000/svg">
<path d="M411.399 267.296L364.185 214.333L411.557 161.569L344.211 139.257L358.845 69.8666L289.376 84.1364L267.291 16.7345L214.328 63.9483L161.565 16.577L139.252 83.9227L69.8619 69.2889L84.1329 138.741L16.7356 160.759L63.9483 213.739L16.5769 266.502L83.9226 288.815L69.1889 358.198L138.641 343.927L160.726 411.329L213.689 364.115L266.452 411.486L288.765 344.141L358.165 358.876L343.894 289.424L411.399 267.296ZM244.392 327.672C221.94 333.598 198.237 332.746 176.268 325.223C154.3 317.7 135.05 303.844 120.943 285.399C106.836 266.955 98.5039 244.748 96.9964 221.576C95.4889 198.404 100.874 175.305 112.472 155.188C124.07 135.071 141.363 118.838 162.171 108.532C182.98 98.2265 206.373 94.3105 229.404 97.2773C252.434 100.244 274.071 109.961 291.589 125.204C309.106 140.447 321.72 160.533 327.841 182.933L328.034 183.767C331.243 195.364 332.632 208.559 331.682 222.143C329.979 246.498 320.742 269.72 305.252 288.591C289.761 307.462 268.784 321.047 245.228 327.462L244.393 327.655L244.392 327.672Z" fill="#FE2C54"/>
<path d="M214.11 110.391C213.8 110.296 213.471 110.274 213.151 110.329C212.831 110.384 212.528 110.513 212.267 110.706C212.006 110.899 211.794 111.15 211.647 111.44C211.501 111.73 211.425 112.05 211.425 112.375V153.481C209.159 151.306 206.205 149.991 203.073 149.762C199.941 149.532 196.827 150.403 194.268 152.224C191.709 154.045 189.866 156.701 189.056 159.736C188.246 162.77 188.521 165.992 189.832 168.846C191.144 171.699 193.41 174.006 196.24 175.367C199.07 176.729 202.286 177.06 205.335 176.304C208.383 175.548 211.071 173.752 212.937 171.226C214.803 168.699 215.728 165.601 215.554 162.465C215.568 162.369 215.575 162.272 215.575 162.175V131.784L239.865 139.254C240.175 139.35 240.503 139.371 240.823 139.317C241.143 139.262 241.445 139.134 241.706 138.941C241.967 138.749 242.18 138.498 242.326 138.208C242.473 137.919 242.549 137.599 242.55 137.275V126.804C242.55 124.585 241.839 122.424 240.521 120.639C239.202 118.854 237.346 117.538 235.225 116.886L214.11 110.391Z" fill="#FE2C54"/>
</svg>
