<svg width="22" height="27" viewBox="0 0 22 27" fill="none" xmlns="http://www.w3.org/2000/svg">
<path d="M18.2187 10.125H13.0625C12.3332 10.125 11.6337 9.76941 11.118 9.13648C10.6022 8.50354 10.3125 7.6451 10.3125 6.74999C10.3125 5.85489 10.6022 4.99644 11.118 4.36351C11.6337 3.73057 12.3332 3.37499 13.0625 3.37499H13.1202C13.4264 2.8501 13.8307 2.42294 14.2991 2.12932C14.7676 1.83571 15.2865 1.6842 15.8125 1.68749C16.5061 1.68741 17.1833 1.94575 17.7546 2.42832C18.326 2.91088 18.7645 3.59495 19.0121 4.39002C19.4844 4.58808 19.8942 4.9631 20.1836 5.46221C20.4729 5.96131 20.6273 6.55931 20.625 7.17187C20.6243 7.95481 20.3705 8.70543 19.9194 9.25906C19.4683 9.81268 18.8567 10.1241 18.2187 10.125ZM13.0625 5.06249C12.6978 5.06249 12.3481 5.24028 12.0902 5.55675C11.8324 5.87322 11.6875 6.30244 11.6875 6.74999C11.6875 7.19755 11.8324 7.62677 12.0902 7.94323C12.3481 8.2597 12.6978 8.43749 13.0625 8.43749H18.2187C18.4921 8.43705 18.7542 8.30356 18.9476 8.06631C19.1409 7.82905 19.2496 7.5074 19.25 7.17187C19.2504 6.86936 19.1617 6.57686 19.0003 6.34829C18.8388 6.11973 18.6154 5.97052 18.3714 5.92818L17.9169 5.84465L17.8056 5.29705C17.7106 4.80364 17.4955 4.35743 17.1888 4.01784C16.882 3.67825 16.4983 3.4614 16.0886 3.39616C15.679 3.33092 15.2628 3.42039 14.8957 3.65266C14.5285 3.88493 14.2276 4.24897 14.0332 4.6963L13.8284 5.06249H13.0625Z" fill="#3E82FC"/>
<path d="M8.9375 23.625V20.9993C10.1625 20.8247 11.3032 20.146 12.1736 19.0738C12.3024 18.9156 12.3749 18.701 12.3749 18.4773C12.3749 18.2536 12.3024 18.039 12.1736 17.8808L9.2565 14.3016L11 12.1618L10.0279 10.9688L8.28438 13.1085L5.368 9.52847C5.23907 9.37029 5.06424 9.28143 4.88194 9.28143C4.69964 9.28143 4.5248 9.37029 4.39587 9.52847C3.36457 10.7943 2.78521 12.5111 2.78521 14.3011C2.78521 16.0912 3.36457 17.808 4.39587 19.0738C4.50725 19.2113 4.62413 19.3379 4.74306 19.4619L3.047 23.625H1.375V25.3125H20.625V23.625H8.9375ZM7.5625 23.625H4.58425L5.90563 20.3825C6.42807 20.6912 6.98746 20.8952 7.5625 20.9866V23.625ZM5.368 17.8808C4.67875 17.0346 4.25577 15.9164 4.17398 14.7242C4.09218 13.5319 4.35686 12.3427 4.92112 11.367L10.6755 18.4283C9.88064 19.1211 8.91162 19.4462 7.94014 19.346C6.96866 19.2457 6.05746 18.7267 5.368 17.8808Z" fill="#3E82FC"/>
</svg>
